<svg xmlns="http://www.w3.org/2000/svg" viewBox="0 0 387.93 493.75"><defs><style>.cls-1{isolation:isolate;}.cls-2{fill:#43c0ff;}.cls-3{fill:#fff;}.cls-4{fill:#3fa9f5;}.cls-5{fill:#def9ff;}.cls-6{fill:#042e60;}.cls-7{opacity:0.71;mix-blend-mode:multiply;}.cls-8{fill:#33a3e8;}.cls-9{opacity:0.45;}.cls-10{fill:#8d8d8d;}.cls-11{fill:#65baf7;}.cls-12{fill:#75c1f8;}.cls-13{fill:none;}.cls-14{fill:#00b7ff;}</style></defs><title>Element 1</title><g class="cls-1"><g id="Ebene_2" data-name="Ebene 2"><g id="CIRCLE"><circle class="cls-2" cx="193.96" cy="259.66" r="193.96"/></g><g id="SHAPES_1" data-name="SHAPES 1"><path class="cls-3" d="M316.39,108.43C335,81.52,350,42.53,342.65,19.06,339.77,9.87,333.26,3.27,324.79,1c-9.43-2.57-23.46-1.55-62,23.19-10.11,6.5-19.69,13.22-25.94,17.73l-.32.23-8.29,6.62a34.82,34.82,0,0,0-7.58-3.26,23.28,23.28,0,0,0-4.56-.87l-.9-.13a8.08,8.08,0,0,0-2.87-.59l-5.19-.12-.9,0c-3.09-.45-8-6.61-10-11.46l-6.44-15.8a8,8,0,0,0-14-1.48l-.44-4.75a8,8,0,0,0-13.17-5.35L148.84,16.29a36.1,36.1,0,0,0-10.41,15.59c-4-2.73-7.91-5.31-11.66-7.73C88.25-.58,74.21-1.61,64.78,1c-8.48,2.31-15,8.91-17.87,18.1-7.36,23.48,7.63,62.46,26.26,89.37C62.47,128.79,56.88,149,56.55,168.49L56.09,196a8,8,0,0,0,14.22,5.16l2.35-2.91a8,8,0,0,0,3.77,3.59,8,8,0,0,0,12.14,4.52l20.07-13.37,8.85,3.23c-11.91,11-29,31.29-34.82,60.53-6.14,30.87,1.63,63.55,23.1,97.24-3,3.11-5.69,6.29-8.27,9.39-6.33,7.59-10.9,13.07-18,15a17.74,17.74,0,0,1-13-1.64,11.53,11.53,0,0,1-5.6-7.16l-.09-.38a13.88,13.88,0,0,1-.14-5.91l5.19-26.58a8,8,0,0,0-14.48-6L36.18,353.06a86.67,86.67,0,0,0-7.12,12.75,80.54,80.54,0,0,0-4.17,56.4c5.72,18.93,19.55,35,37,43a56.5,56.5,0,0,0,47,.47,58.14,58.14,0,0,0,8.81-4.9,27.6,27.6,0,0,0,1.05,13.63c2,5.93,8.17,16.25,26.06,18.69,11.93,1.61,28.27.84,38.36-12.06,7.6-9.7,9-23.89,3.9-39.08a38.49,38.49,0,0,0-3.64-14.24l8-33.91c.93.06,1.86.1,2.79.11,1.14,0,2.27,0,3.41-.07l8,33.87A38.49,38.49,0,0,0,202,442c-5.1,15.19-3.71,29.37,3.89,39.08,6.59,8.43,16.47,12.7,29.35,12.7a68.44,68.44,0,0,0,9-.64c17.89-2.44,24-12.76,26.06-18.69,4.68-13.54-2.8-27.49-10.67-37.47a30.57,30.57,0,0,0-2.63-10.07l6.78-43.37a23.47,23.47,0,0,0,3.71-2c8.73-5.82,11.53-15.74,12.4-22.33,24.06-35.53,33-70,26.53-102.45-5.8-29.15-22.8-49.37-34.7-60.42l9.15-3.34L301,206.31a8,8,0,0,0,12.15-4.52,8,8,0,0,0,3.77-3.59l2.35,2.91A8,8,0,0,0,333.47,196L333,168.5C332.68,149,327.09,128.79,316.39,108.43Zm-51,136.21-.66.15q-.71-1.9-1.5-3.75l-.41-.92C263.71,241.57,264.57,243.07,265.39,244.64ZM140.1,156.08a15.66,15.66,0,0,0,8.47,13.36,16.31,16.31,0,0,0,7.52,1.83,16.58,16.58,0,0,0,1.72,1.39,65.15,65.15,0,0,0,37.42,11.55,68.24,68.24,0,0,0,33.13-8.53,8,8,0,0,0-1.77,2.46l-1,2.26a48.26,48.26,0,0,1-2.87,5.26c-5.67,8.92-13.6,13.8-23.58,14.52L188.53,200c-7.08-.9-16.76-4.56-23.46-16.71-.52-.94-1-1.93-1.47-2.91L162.47,178A8,8,0,0,0,158,173.8l-36.32-13.26,1.8-7.19a28.57,28.57,0,0,1,17.32-5l.28,0A23.34,23.34,0,0,0,140.1,156.08ZM152,262c1.06-5.75,2.28-11.43,3.58-17.45q.66-3,1.32-6.16l.83-3.91a74.47,74.47,0,0,0,29.81,9.6,14.83,14.83,0,0,0,7.86-1.33,14.86,14.86,0,0,0,7.78,1.33,75.1,75.1,0,0,0,27.56-8.29l.82,3.19c2.24,8.65,3.88,15.94,5.17,23a93.19,93.19,0,0,1,1.62,20.85A90,90,0,0,1,237.26,293a85.23,85.23,0,0,1-2.39,9.93,75.09,75.09,0,0,1-4.28,10.66h-13.4L194,313.6l-34.71.33-1.51,0a88.36,88.36,0,0,1-4-10.82l-.06-.24c-.45-1.64-.88-3.19-1.18-4.62a1.16,1.16,0,0,0,0-.18l0-.22a.83.83,0,0,0,0-.15c-.23-.93-.43-2-.66-3.31l0-.28L151.5,293a101.07,101.07,0,0,1-1-10.11A97.78,97.78,0,0,1,152,262Zm79.47-88.11q.81-.49,1.59-1a15.3,15.3,0,0,0,2.05-1.61,16.26,16.26,0,0,0,6.21-1.78,15.66,15.66,0,0,0,8.47-13.36,23.5,23.5,0,0,0-.94-7.71,28.55,28.55,0,0,1,17.28,5l1.8,7.19ZM55.33,408a45.4,45.4,0,0,0,5.3,1.94c18.46,5.52,39.14-.5,54-15.72,2.49-2.54,4.86-5.46,7.37-8.55l2.19-2.69c.38.19.75.37,1.14.53l2.14,13.7a15.83,15.83,0,0,0-12.73,13.05c-2,11.73-12,23.56-22.16,26.36C82,439.54,70,435,62.76,425.32h0A40.75,40.75,0,0,1,55.33,408Z"/></g><g id="COLORS"><path class="cls-4" d="M310.53,85.15c2.23-11.74,15.33-42.09,15.33-42.09s5.11-16.18,0-20.86S301,15,293.61,22.2,229,72.34,229,72.34l-13.88-9.07L198.06,58l-14.84-8.11-3.43-6.8.43,15.33S159.59,43.49,159.68,32c0,0-5.44,14.48-5,21.72l.42,7.24S75.4,7.58,65.64,20.64,81,93.49,86.11,99.15l5.11,5.66,13.45-14c-3.29,3.7-28.76,36-28.36,66.29v8.61l12.94-16.18v21.4l5.37-.29,7.53-1.95-3.27,10.65,9.8-4.26,33.21,11.5L139.76,196,137.92,207s-36.83,22.33-39.46,55.36,28.27,92.55,28.27,92.55L96,389.29s-38.8,17.88-50.73-13.63c0,0-14.75,25.52-6.74,44.7s45.5,49.73,69.34,26.58c22.69-22,22.59-28.88,22.53-29.5l2.17,17.41L148.24,411l1.55,18.73-1.55,8.52-3.62,7.24-5.28,9.75-3.84,11,3,7.07,15.09,2.82h10.9l6-3.92,1.7-6V449.81L165.79,431l12.73-54.51,19.54.85,13.67-2.55,12.37,55.36-4.17,10.65s-1.81,6.49-1.81,9-.85,13.58-.85,13.58l2.66,6.81,4.17,3.14,8.68,2.82h10.94l5.06-2.82c3.41-2.29,4.26-7.07,4.26-7.07V454.44l-6.81-4.63-2.95-7.72c-1.74-3.4-2.64-9.79-2.64-9.79l8.57-64.73,9.57-.85,4.06-11.79s25.55-40.39,28.53-64.44-2.13-59.2-39.61-89l-3.83-14.9,44.15-15.94,8.23-2.8V154.21l13.63,6.19s-1.28-31.31-15.33-52.61l-5-2.82S308.3,96.89,310.53,85.15Z"/><path class="cls-5" d="M99.16,257.23l35.12,9.31s-4.69,46.46,15.51,66.13l3.79-1.9L240,330s16-20.19,15.58-63.48c0,0,8.32-8.41,34.48-6.88,0,0-11.56-38.66-38.28-58.18l-7.41-12.08H240s-9.76,29.39-41.92,29-44.06-21.95-50-29c0,0-8.76.44-8.29,6.55S105.32,220.16,99.16,257.23Z"/><path class="cls-3" d="M65.64,26.21s36.3,12,52.16,50.43L105,83.3l3.26,7.14L93.05,107.17S52.17,67.44,65.64,26.21Z"/><path class="cls-3" d="M323.92,26.21c-.63-1.4-44,20-51.65,52.65l11.83,4.76-1.36,6.82,15.87,17.35S334.34,49,323.92,26.21Z"/><path class="cls-3" d="M250.07,132.78l8.88-5.39c-18.4-2.54-55.83,21.78-55.83,21.78l-7.54,1.69s-11.81-2.53-13.46-3.06q-3.18-1-6.12-2c-6.55-7-19.62-16.24-44.88-20.65l5.56,8.34C99.19,138,92.42,171,92.42,171l55.63,18.77c10.9,15.7,24.3,26.17,46.44,28.88s49.86-28.88,49.86-28.88l54.7-21.13C274.76,130.8,250.07,132.78,250.07,132.78Z"/><path class="cls-6" d="M148.24,331.05,240,330s6,18.1,22.86,24.91l-4.06,11.79-9.86,3-8.28,58.83,2.64,13.5-4.77,3.58-17.83.75,1.11-12.26,2.6-5.94-12.66-53.41s-20.76,4.76-32.27-.44l-12.62,59.78L169,446.94v2.87s-3.64-5.69-20.71-2.87L152,428.59l-11.14-61.65-8.91,1.11-5.19-13.12S143.76,346,148.24,331.05Z"/><path class="cls-3" d="M218.41,447.34c-.29,2.47,0,17.76,0,17.76l4.23,7.14,6.93,3.92,4.52,2,6.55-.85,5.59-2.55,4.59-3.4,1.84-3.66,1.88-3.62-1.5-7-2.2-4.15-3.17-5.84L244,444.06l-7.62.12Z"/></g><g id="SHAPES_2" data-name="SHAPES 2"><g class="cls-7"><path class="cls-8" d="M137.67,127.87c0-.13-.11-.25-.15-.25a30.76,30.76,0,0,0-4.23-.28c-1.39,0-2.75.06-4.11.17a49.55,49.55,0,0,0-8,1.37,47.59,47.59,0,0,0-15.06,6.82,40.72,40.72,0,0,0-4.55,3.66c1.4-2.19,2.72-4.45,3.94-6.81,1-2.06,2-4.17,2.89-6.41.42-1.12.83-2.26,1.19-3.45a29.46,29.46,0,0,0,.94-3.73s0-.1-.13-.18-.21-.16-.25-.15a25.91,25.91,0,0,0-3.57,1.47c-1.13.54-2.2,1.15-3.25,1.78a48.87,48.87,0,0,0-5.85,4.21c-.29.24-.55.5-.84.75l3.87-8c3.2-6.53,6.51-12.91,10.17-19.2,1.82-3.15,3.75-6.26,5.78-9.4L118,87.85c.53-.78,1.07-1.57,1.59-2.38s1.1-1.58,1.65-2.4,1.12-1.61,1.67-2.47a.3.3,0,0,0-.06-.23c-.08-.11-.19-.19-.24-.18-1,.31-1.92.64-2.87,1s-1.84.81-2.75,1.26-1.78.94-2.66,1.45-1.71,1.06-2.56,1.61a58.57,58.57,0,0,0-9.26,7.81,77.29,77.29,0,0,0-13.67,19.75,98.62,98.62,0,0,0-7.7,22.31A107.46,107.46,0,0,0,79.23,147c-.19,1.95-.35,3.9-.43,5.88,0,.85-.06,1.71-.07,2.57,0,.1,0,.19-.06.29a24.43,24.43,0,0,0-.48,3.84,15.48,15.48,0,0,0,.27,3.94s.08.07.19.11.26.08.29,0c1-.84,2-1.65,2.86-2.43l2.66-2.28c1.73-1.49,3.39-3,5-4.58,1.38-1.38,2.7-2.8,4-4.24a28.93,28.93,0,0,0-2.18,6.18c-.15.72-.27,1.44-.38,2.15s-.15,1.44-.19,2.16,0,1.45,0,2.16c0,.14,0,.27.05.4,5.51-10.27,14-19.7,24.25-25.21,3.26-1.75,11.18-5.06,16.67-4.37,1-.81,2-1.63,3-2.52a34.94,34.94,0,0,0,3-3A.29.29,0,0,0,137.67,127.87Z"/><path class="cls-8" d="M314.08,159.54a24.43,24.43,0,0,0-.48-3.84,2.3,2.3,0,0,0-.06-.28c0-.87,0-1.73-.07-2.58-.08-2-.24-3.93-.43-5.88a107.46,107.46,0,0,0-1.88-11.56,98.62,98.62,0,0,0-7.7-22.31,77.29,77.29,0,0,0-13.67-19.75,58.57,58.57,0,0,0-9.26-7.81c-.85-.55-1.71-1.09-2.56-1.61s-1.77-1-2.66-1.45-1.83-.86-2.75-1.26-1.9-.71-2.87-1c0,0-.12,0-.19.12s-.14.24-.11.29c.55.86,1.11,1.67,1.67,2.47s1.1,1.62,1.65,2.4,1.06,1.6,1.59,2.38l1.54,2.36c2,3.14,4,6.25,5.78,9.4,3.66,6.29,7,12.67,10.17,19.2l3.87,8c-.29-.25-.55-.51-.84-.75a48.87,48.87,0,0,0-5.85-4.21c-1.05-.63-2.12-1.24-3.25-1.78a25.91,25.91,0,0,0-3.57-1.47s-.11,0-.2.1-.19.19-.18.23a29.46,29.46,0,0,0,.94,3.73c.36,1.19.77,2.33,1.19,3.45.87,2.24,1.85,4.35,2.89,6.41,1.22,2.36,2.54,4.62,3.94,6.81a39.93,39.93,0,0,0-4.56-3.66,47.44,47.44,0,0,0-15.05-6.82,49.55,49.55,0,0,0-8-1.37c-1.36-.11-2.72-.18-4.11-.17a30.76,30.76,0,0,0-4.23.28s-.08.07-.13.18-.07.26,0,.29a34.94,34.94,0,0,0,3,3c.9.81,1.81,1.57,2.72,2.31,6.74,1.3,12.41,5.46,17.53,10.43a45.09,45.09,0,0,1,7.51,7.36c1.49,1.14,3,2.3,4.43,3.52,1.8,1.48,3.57,3,5.37,4.75l1.36,1.31c.44.45.89.9,1.37,1.36s.9,1,1.39,1.45.94,1,1.47,1.51c0,0,.11,0,.22,0s.26-.09.27-.13c.14-.72.24-1.44.31-2.17s0-1.44,0-2.16-.1-1.44-.19-2.16-.23-1.43-.38-2.15a28.93,28.93,0,0,0-2.18-6.18c1.27,1.44,2.59,2.86,4,4.24,1.64,1.59,3.3,3.09,5,4.58l2.66,2.28c.91.78,1.83,1.59,2.86,2.43a.36.36,0,0,0,.22,0,.51.51,0,0,0,.26-.14A15.48,15.48,0,0,0,314.08,159.54Z"/><path class="cls-8" d="M143.83,341.82c1.82-3.06,3.66-6.11,5.31-9.26l-.56-1.11A157.77,157.77,0,0,1,133.65,277l-.18-2.94c.47,0,.95,0,1.43,0-.06-3.24,0-6.48.11-9.71l-.64-.32c-.46-.22-.92-.41-1.38-.61,0-.29,0-.59,0-.88a2.09,2.09,0,0,0,0-.25c-2.1-.48-4.18-1-6.25-1.65a2.83,2.83,0,0,1-.11.31c-1.72-.57-3.45-1.1-5.21-1.54a69.29,69.29,0,0,0-13.61-2,58.47,58.47,0,0,0-6.34.08c-.48,2.36-1,4.72-1.43,7.07a58.94,58.94,0,0,0,5.28,2.87,69.27,69.27,0,0,0,13,4.6c1.85.46,3.71.82,5.59,1.13-.18,1.26-.36,2.51-.52,3.77a88.63,88.63,0,0,0,16.42,59.86C141.09,338.49,142.46,340.16,143.83,341.82Z"/><path class="cls-8" d="M287.51,257.38c-1.42,0-2.83,0-4.23,0a69.29,69.29,0,0,0-13.61,2c-1.75.44-3.49,1-5.21,1.54l-.09-.24q-3.18,1.05-6.28,2.27c0,.15,0,.29,0,.44-.46.2-.92.39-1.37.61-1.31.63-2.6,1.32-3.88,2.06q.45,3.93.52,7.87c1.43.09,2.85.13,4.26.11-.07,1-.13,2-.19,2.94a158.05,158.05,0,0,1-14.92,54.45L240.67,335a4.35,4.35,0,0,1,2,1.72c1.29,2.05,2.39,4.2,3.49,6.35l.18-.19q2.52-3,5-6.12a88.63,88.63,0,0,0,16.42-59.86c-.16-1.26-.33-2.51-.52-3.77,1.88-.31,3.75-.67,5.59-1.13a69.36,69.36,0,0,0,13-4.6q2-.94,3.87-2C289,262.7,288.28,260,287.51,257.38Z"/><path class="cls-8" d="M142.9,401.8a92.68,92.68,0,0,0-3.13-21.72q-.77-2.65-1.62-5.27-.89-2.46-1.89-4.87a8.62,8.62,0,0,1-5.06-.93,6.46,6.46,0,0,1-1.47-1.11c0,1-.07,2-.09,3-.07,1.79-.09,3.56-.08,5.31s0,3.51,0,5.25c0,2.65,0,5.28.09,7.91-.59,2.54-1.24,5-2,7.5a83.47,83.47,0,0,1-8.94,20.2,62,62,0,0,1-6.36,8.51,52.16,52.16,0,0,1-7.74,7,46.93,46.93,0,0,1-18.39,8.46,34.46,34.46,0,0,1-9.79.72,21.82,21.82,0,0,1-2.42-.26,22.38,22.38,0,0,1-2.41-.39,39.32,39.32,0,0,1-4.84-1.36c-6.44-2.22-12.82-6.06-19-10.31-1.82-1.27-3.59-2.61-5.35-4,1.82,3.57,3.63,7.14,5.5,10.68.49.66,1,1.32,1.48,2a4.29,4.29,0,0,1,3.87,1.14c3.38,3.12,6.91,6,10.55,8.79,5.94,2.36,11.9,4.7,18,6.66a45.42,45.42,0,0,0,7-.91,53.62,53.62,0,0,0,23.43-11.51,57,57,0,0,0,9-9.34A63.16,63.16,0,0,0,127.77,422a62.48,62.48,0,0,0,2.59-6.37c.09,2.38.18,4.75.29,7.15.07,1.74.16,3.48.29,5.24.08,1.55.18,3.11.32,4.69,3.36-4,6.72-8,10.22-11.89A93.3,93.3,0,0,0,142.9,401.8Z"/><path class="cls-8" d="M219,83.44c.51.44,1,.92,1.56,1.44a.17.17,0,0,0,.12,0c.06,0,.12-.05.12-.07a7.65,7.65,0,0,0-.05-2.29,9.85,9.85,0,0,0-.61-2.23,12.91,12.91,0,0,0-2.51-4,15.05,15.05,0,0,0-3.73-2.94,17,17,0,0,0-4.38-1.7c-1.42-.35-2.75-.54-3.94-.75a24,24,0,0,1-3.37-.73c-1.12-.33-2.31-.78-3.56-1.27l-1.94-.74a20.66,20.66,0,0,0-2.1-.68.21.21,0,0,0-.09.06c-.05.05-.08.11-.07.13a14.19,14.19,0,0,0,1,2,18.64,18.64,0,0,0,1.19,1.84,15.68,15.68,0,0,0,3.19,3.22A15.45,15.45,0,0,0,204,76.91c1.42.48,2.76.79,4,1.09a30.52,30.52,0,0,1,3.29,1,25.87,25.87,0,0,1,3.13,1.37,24.18,24.18,0,0,1,3.07,1.91A18.52,18.52,0,0,1,219,83.44Z"/><path class="cls-8" d="M191.66,77.78a26.72,26.72,0,0,0-2.93-2.9,45.54,45.54,0,0,0-6.46-4.43c-2.19-1.27-4.35-2.37-6.51-3.51-.54-.28-1.06-.58-1.63-.85s-1.07-.61-1.65-.9-1.09-.64-1.7-1-1.15-.7-1.82-1c0,0-.05,0-.1,0s-.11.08-.11.1a13.08,13.08,0,0,0,.47,2.13,19.18,19.18,0,0,0,.85,2c.35.62.72,1.24,1.13,1.84s.87,1.13,1.34,1.67a26.89,26.89,0,0,0,6.47,5.1,46.3,46.3,0,0,0,7.12,3.25c1.21.43,2.42.84,3.69,1.2.63.19,1.26.38,1.93.54a19.28,19.28,0,0,0,2.05.48s.06,0,.1-.06.07-.11.06-.13a13.44,13.44,0,0,0-1-1.9C192.53,78.88,192.1,78.33,191.66,77.78Z"/><path class="cls-8" d="M324.78,19.49c-2.21.66-4.37,1.43-6.52,2.27l-3.19,1.31-3.15,1.42a106.49,106.49,0,0,0-12.15,6.7,97.4,97.4,0,0,0-21.17,18.2,81.91,81.91,0,0,0-14.49,24,69.59,69.59,0,0,0-3.68,13.52L260,90.38c-.1,1.16-.18,2.32-.26,3.47s-.05,2.32-.05,3.47.11,2.31.19,3.46a.12.12,0,0,0,.1.11.14.14,0,0,0,.15-.1c.25-1.11.5-2.23.74-3.34l.83-3.29.94-3.24,1-3.19a97.4,97.4,0,0,1,5.19-12.25,107.55,107.55,0,0,1,14.69-21.84,142.3,142.3,0,0,1,19.25-18.25c3.49-2.79,7.11-5.44,10.81-8l2.78-1.93,2.82-1.91c1.89-1.26,3.8-2.51,5.7-3.8a.11.11,0,0,0,.05-.14A.12.12,0,0,0,324.78,19.49Z"/><path class="cls-8" d="M71.41,23.52l2.82,1.91L77,27.36c3.7,2.59,7.31,5.24,10.8,8a141.71,141.71,0,0,1,19.25,18.25,108,108,0,0,1,14.7,21.84A97.35,97.35,0,0,1,127,87.73l1,3.19.93,3.24.83,3.29c.25,1.11.5,2.23.74,3.34a.15.15,0,0,0,.12.1.14.14,0,0,0,.14-.11c.08-1.15.15-2.3.19-3.46s0-2.31-.06-3.47-.15-2.31-.26-3.47l-.46-3.46a69.62,69.62,0,0,0-3.69-13.52,81.7,81.7,0,0,0-14.49-24,97.4,97.4,0,0,0-21.17-18.2,107.21,107.21,0,0,0-12.14-6.7l-3.15-1.42-3.2-1.31c-2.14-.84-4.31-1.61-6.51-2.27a.15.15,0,0,0-.14.05.14.14,0,0,0,0,.18C67.61,21,69.52,22.26,71.41,23.52Z"/><path class="cls-9" d="M171.62,454a15.18,15.18,0,0,0-2.87-3.93,15.6,15.6,0,0,0-1.9-1.6,12.71,12.71,0,0,0-2.3-1.37.42.42,0,0,0-.21,0,.78.78,0,0,0-.26.12,19.14,19.14,0,0,0-1,2.46c-.27.78-.47,1.53-.67,2.25-.39,1.44-.66,2.75-.93,3.92-.49,2.36-.94,4-1.31,5.36s-.77,2.91-1.57,5.17c-.38,1.13-.84,2.37-1.27,3.79-.21.72-.43,1.46-.62,2.27a18.54,18.54,0,0,0-.46,2.61.57.57,0,0,0,.11.19c.09.11.18.2.21.2a13.43,13.43,0,0,0,2.67.06,16.19,16.19,0,0,0,2.46-.35,15.35,15.35,0,0,0,4.53-1.85,14.76,14.76,0,0,0,6.9-14.38A15.12,15.12,0,0,0,171.62,454Z"/><path class="cls-9" d="M232.64,473.15l-1.36-4c-.88-2.48-1.64-4.6-2.39-6.62s-1.55-4.16-2.34-6.26c-.43-1.15-.85-2.37-1.28-3.76-.22-.7-.43-1.44-.65-2.24l-.67-2.64a.83.83,0,0,0-.17-.13.65.65,0,0,0-.27-.11,8.87,8.87,0,0,0-1.37.6,14.13,14.13,0,0,0-1.22.79,12.57,12.57,0,0,0-2.06,2,14.76,14.76,0,0,0-2.62,5,17.81,17.81,0,0,0,.48,11.26,18.66,18.66,0,0,0,6.66,8.68,16.66,16.66,0,0,0,4.85,2.36,15.18,15.18,0,0,0,2.7.53,11.62,11.62,0,0,0,2.88,0s.08-.06.15-.16a.63.63,0,0,0,.13-.25c-.21-1-.47-1.86-.72-2.68S232.88,473.89,232.64,473.15Z"/></g><g class="cls-9"><path class="cls-10" d="M294.61,83.1a11.1,11.1,0,0,1-1.5.05c-.47,0-.92,0-1.35-.05-.88,0-1.69-.14-2.48-.26a32.76,32.76,0,0,1-8.71-2.59c-.72-.33-1.45-.7-2.21-1.14a13.24,13.24,0,0,1-1.16-.7,10.72,10.72,0,0,1-1.22-.87s0-.07,0-.14a.2.2,0,0,1,0-.11,8.36,8.36,0,0,1,1.26-.87,10.42,10.42,0,0,1,4-1.28,13.39,13.39,0,0,1,5.42.48,13.66,13.66,0,0,1,4.81,2.57,12.34,12.34,0,0,1,1.91,2,14.17,14.17,0,0,1,.76,1.24,7.53,7.53,0,0,1,.58,1.42s0,.07-.07.13Z"/></g><path class="cls-10" d="M329.05,26.26a.13.13,0,0,0-.15-.09c-1.76.64-3.54,1.3-5.24,2.09s-3.43,1.59-5.07,2.52l-2.47,1.38-2.41,1.49c-1.61,1-3.15,2.1-4.69,3.2-.23.16-.45.34-.67.5a94.31,94.31,0,0,0-12.23,9.09A83,83,0,0,0,283.4,60.37l-.52.77a31.38,31.38,0,0,0-4.81,7.73c-.3.74-.58,1.48-.84,2.23s-.45,1.53-.64,2.3-.3,1.58-.4,2.37c0,.35-.06.69-.08,1s-.12.61-.16.91c0,0,0,.08.07.11h.07c0,.13,0,.25,0,.38a.17.17,0,0,0,.09.07c.06,0,.13,0,.15,0,.41-.36.77-.74,1.13-1.12-.2.5-.38,1-.57,1.52,2,1,4,2.08,6,3.17l.15,0L288.46,83l5.44,1q.71.15,1.44.27c.48.1,1,.19,1.5.26s1,.19,1.59.26a14.3,14.3,0,0,0,1.73.22.18.18,0,0,0,.09-.07.41.41,0,0,0,.07-.12,10.74,10.74,0,0,0-.74-1.65c-.31-.5-.64-1-1-1.46s-.77-.87-1.19-1.28-.88-.75-1.34-1.11a16.18,16.18,0,0,0-13.26-2.58l-.12,0c.6-1,1.22-1.89,1.82-2.83a176.47,176.47,0,0,1,12.93-17.39q5.38-6.41,11.35-12.33c1.82-1.5,3.64-3,5.5-4.46q3.56-2.81,7.19-5.58l3.66-2.8c1.22-.95,2.46-1.88,3.67-2.88,0,0,0-.07,0-.13s-.08-.11-.12-.09c-1,.25-2,.54-3,.86,1.11-.91,2.24-1.8,3.35-2.77A.12.12,0,0,0,329.05,26.26Z"/><path class="cls-10" d="M60.76,26.26c0-.07.09-.11.14-.09,1.77.64,3.54,1.3,5.25,2.09s3.42,1.59,5.06,2.52l2.48,1.38,2.4,1.49c1.62,1,3.15,2.1,4.7,3.2.22.16.44.34.67.5a94.21,94.21,0,0,1,12.22,9.09A82.62,82.62,0,0,1,106.4,60.37c.18.25.35.51.52.77a30.8,30.8,0,0,1,4.81,7.73c.3.74.58,1.48.84,2.23s.46,1.53.65,2.3.3,1.58.4,2.37c0,.35.06.69.07,1s.13.61.17.91a.14.14,0,0,1-.08.11h-.06v.38s0,.05-.09.07-.13,0-.14,0c-.41-.36-.78-.74-1.14-1.12.21.5.38,1,.58,1.52q-3,1.53-6,3.17l-.15,0L101.34,83,95.9,84q-.69.15-1.44.27c-.48.1-1,.19-1.5.26s-1,.19-1.58.26a14.47,14.47,0,0,1-1.74.22s0,0-.08-.07-.08-.11-.07-.12a9.11,9.11,0,0,1,.74-1.65,17.18,17.18,0,0,1,1-1.46c.37-.44.77-.87,1.19-1.28s.88-.75,1.34-1.11A16.17,16.17,0,0,1,107,76.75l.12,0L105.32,74A179.71,179.71,0,0,0,92.39,56.57Q87,50.16,81,44.24c-1.82-1.5-3.64-3-5.5-4.46Q72,37,68.34,34.2l-3.65-2.8c-1.22-.95-2.46-1.88-3.67-2.88,0,0,0-.07,0-.13s.08-.11.13-.09c1,.25,2,.54,3,.86-1.12-.91-2.25-1.8-3.35-2.77A.12.12,0,0,1,60.76,26.26Z"/><path class="cls-10" d="M211.27,186.53c-.79-.07-1.53-.07-2.25-.07s-1.44,0-2.14,0-1.39,0-2.06,0-1.35,0-2,0c-2.66,0-5.23-.15-7.8-.32s-5.12-.42-7.76-.73c-.66-.09-1.32-.18-2-.24s-1.35-.19-2.05-.26-1.38-.2-2.12-.26a19,19,0,0,0-2.24-.23.21.21,0,0,0-.08.07c0,.06-.06.12,0,.14a15.82,15.82,0,0,0,1.46,1.79c.54.54,1.12,1,1.7,1.53s1.23.89,1.88,1.31,1.32.74,2,1.09a24.77,24.77,0,0,0,17.86,1.2c.72-.25,1.43-.53,2.13-.81s1.37-.68,2-1,1.28-.84,1.89-1.29a16.82,16.82,0,0,0,1.7-1.57.17.17,0,0,0,0-.11A.24.24,0,0,0,211.27,186.53Z"/><path class="cls-11" d="M134.37,264l-13-4.62s5.55-12.18,22.29-23.84c0,0-14.63,57.08,12.41,94.46l-7.52,1.43S132.62,293,134.37,264Z"/><path class="cls-12" d="M177,227.19h0s.06,0,.09-.07.05-.13,0-.15c-.46-.46-.93-.89-1.41-1.32-2.13-2.94-3.25-7,6.35-7.21l-18.76-9.76c-.23-.27-.47-.53-.7-.78-.42-.49-.84-1-1.27-1.39s-.83-.92-1.25-1.35L155.23,200c-1.65-1.69-3.28-3.38-4.95-5.11-.42-.43-.85-.87-1.3-1.3s-.87-.89-1.35-1.32-.91-.91-1.42-1.35a17.68,17.68,0,0,0-1.56-1.36s-.06,0-.11,0-.12.06-.12.08a15,15,0,0,0,0,2.12l.09.73c-.5-.43-1-.87-1.6-1.28,0,0-.06,0-.11,0s-.11.08-.1.11a23.1,23.1,0,0,0,.59,2.62c.09.28.19.55.28.83-.49-.65-1-1.31-1.51-2a.12.12,0,0,0-.12,0c-.07,0-.12.06-.12.09a20,20,0,0,0,.38,3.28,29.43,29.43,0,0,0,.82,3.2,33,33,0,0,0,2.66,6.06A41,41,0,0,0,154,215.75a48.78,48.78,0,0,0,10.8,7.36,50.48,50.48,0,0,0,6,2.5c1,.34,2.06.66,3.11.93.73.18,1.47.34,2.21.48l2.53,1.69A19.61,19.61,0,0,1,177,227.19Z"/><path class="cls-11" d="M253.7,264l13-4.62s-5.55-12.18-22.29-23.84c0,0,14.63,57.08-12.41,94.46l7.52,1.43S255.45,293,253.7,264Z"/><path class="cls-11" d="M246.26,189.57l-2.58.8c0-.23,0-.46,0-.7,0,0-.05-.06-.12-.08s-.1,0-.11,0a17.68,17.68,0,0,0-1.56,1.36l0,0-2.85.89-2.14,4-4,4.14-4.91,5.15c-.42.43-.84.88-1.25,1.35s-.85.9-1.27,1.39c-.24.25-.47.51-.7.78L206,218.44c9.6.24,8.48,4.27,6.35,7.21-.48.43-1,.86-1.41,1.32,0,0,0,.09,0,.15s.06.08.09.07h0a19.61,19.61,0,0,1-1.56,1.52L212,227c.74-.14,1.48-.3,2.21-.48,1-.27,2.08-.59,3.11-.93a50.48,50.48,0,0,0,6-2.5,48.78,48.78,0,0,0,10.8-7.36,42.1,42.1,0,0,0,6.06-6.79l.5.76,1.8-2.5,3.12-3.9,1.56-.93,2.17-4.89Z"/></g><g id="LINES"><path class="cls-13" d="M103.47,87.15l.19-.23.71-.79-7.46-6.28,17.35-5.48c-4.82-10.59-17.08-29.83-46.15-44.94C66.85,45,77.26,75.71,95,99.15,98,94.48,100.93,90.44,103.47,87.15Z"/><path class="cls-13" d="M273.52,85.37,276.35,83,264.5,79.24l1.42-3.8C276.39,47.32,302.11,30.31,318.5,22a3.83,3.83,0,0,0-2-1.28c-2.74-.75-12.57-.28-44.47,20.21-18,11.56-34.2,23.86-34.36,24l-.55.41h0L232.24,69l-.4.36a61.54,61.54,0,0,0-4.59,5.08l-.2.32a.22.22,0,0,1-.05.08,69.54,69.54,0,0,0-9.8-7.12,33.69,33.69,0,0,0-9.78-4.14,14.84,14.84,0,0,0-2.44-.32l-.18,0-.56,0h0c-10.5-.85-17.91-8.7-22.28-15.15a29.05,29.05,0,0,0,1.72,7.35l3.69,9.35-8.67-5.06c-11.95-7-17.39-16.32-19.83-22.82-3.52,8-2.8,19.83-2,24.67l1.39,8.59-6.92-5.27c-.17-.13-16.35-12.43-34.36-24C85,20.4,75.22,19.93,72.48,20.68a3.8,3.8,0,0,0-2,1.28c16.38,8.35,42.1,25.36,52.57,53.48l1.42,3.8L112.62,83l2.83,2.39-6,6.61c-18.92,24.56-25.92,46.28-28.32,61.28l18.09-22.4-3.07,15.4c-.57,2.86-1.6,8.58-2.32,14.14a83.07,83.07,0,0,1,7.56-11.33c9.71-12.18,21.57-19.14,34.6-20.39-2.79-1.82-6-3.93-7.95-5.07l-7.7-4.62,8.92,1.05c1.1.13,27,3.33,47.28,18.92l.93.68a5.84,5.84,0,0,1,1.71-2.85l9.89-9.3a8.11,8.11,0,0,1,10.74,0l9.89,9.3a5.84,5.84,0,0,1,1.71,2.85l.92-.68h0c20.27-15.59,46.19-18.79,47.28-18.92l8.92-1.05-7.7,4.62c-1.9,1.14-5.15,3.25-7.94,5.07,13,1.25,24.88,8.21,34.59,20.39a82.29,82.29,0,0,1,7.57,11.33c-.72-5.56-1.75-11.28-2.32-14.14l-3.08-15.4,18.09,22.4c-2.39-15-9.39-36.72-28.31-61.28Zm-119,.13,17.37,10.42c2.56,1.54.23,5.54-2.33,4L152.17,89.5C149.62,88,152,84,154.51,85.5Zm17.55,35.43a11,11,0,0,0-11.18,0,1.16,1.16,0,0,1-1.17-2,12.73,12.73,0,0,1,5.14-1.75,9.23,9.23,0,0,1-1.47-5.36c0-3.62,1.56-6.56,3.47-6.56s3.48,2.94,3.48,6.56a9.08,9.08,0,0,1-1.57,5.49,14.05,14.05,0,0,1,4.47,1.62A1.16,1.16,0,0,1,172.06,120.93Zm58.11-.29a11,11,0,0,0-11.19,0,1.16,1.16,0,0,1-1.17-2,14,14,0,0,1,4.48-1.62,9,9,0,0,1-1.57-5.49c0-3.62,1.55-6.56,3.47-6.56s3.47,2.94,3.47,6.56a9.2,9.2,0,0,1-1.47,5.36,12.78,12.78,0,0,1,5.15,1.75C232.61,119.41,231.45,121.42,230.17,120.64Zm8.7-31.43L221.5,99.63c-2.56,1.54-4.9-2.46-2.34-4l17.37-10.42C239.1,83.67,241.43,87.67,238.87,89.21Z"/><polygon class="cls-13" points="204.98 63.27 204.98 63.27 204.98 63.27 204.98 63.27"/><path d="M171.88,95.92,154.51,85.5c-2.56-1.54-4.89,2.46-2.34,4l17.38,10.42C172.11,101.46,174.44,97.46,171.88,95.92Z"/><path d="M173.23,118.93a14.05,14.05,0,0,0-4.47-1.62,9.08,9.08,0,0,0,1.57-5.49c0-3.62-1.56-6.56-3.48-6.56s-3.47,2.94-3.47,6.56a9.23,9.23,0,0,0,1.47,5.36,12.73,12.73,0,0,0-5.14,1.75,1.16,1.16,0,0,0,1.17,2,11,11,0,0,1,11.18,0A1.16,1.16,0,0,0,173.23,118.93Z"/><path d="M236.53,85.21,219.16,95.63c-2.56,1.54-.22,5.54,2.34,4l17.37-10.42C241.43,87.67,239.1,83.67,236.53,85.21Z"/><path d="M231.34,118.64a12.78,12.78,0,0,0-5.15-1.75,9.2,9.2,0,0,0,1.47-5.36c0-3.62-1.55-6.56-3.47-6.56s-3.47,2.94-3.47,6.56a9,9,0,0,0,1.57,5.49,14,14,0,0,0-4.48,1.62,1.16,1.16,0,0,0,1.17,2,11,11,0,0,1,11.19,0C231.45,121.42,232.61,119.41,231.34,118.64Z"/><path d="M223.24,157.52c-16.49,10.92-38.83,11.49-55.34,0-2.49-1.73-4.84,2.34-2.37,4.06,17.8,12.39,42.31,11.76,60.08,0C228.12,159.91,225.77,155.84,223.24,157.52Z"/><path d="M164.18,148.1a10.39,10.39,0,0,0-5.55-.41c-3.73.81-5.19,4.29-5,7.81.13,3,4.83,3,4.7,0a6.5,6.5,0,0,1,.13-2,2.29,2.29,0,0,1,.35-.74,1,1,0,0,1,.5-.36l.61-.16h.2c.4,0,.8,0,1.2,0h.1l.48.1a8.06,8.06,0,0,1,1.07.29C165.79,153.65,167,149.11,164.18,148.1Z"/><path d="M231.26,147.69a10.39,10.39,0,0,0-5.55.41c-2.83,1-1.61,5.55,1.25,4.53a8.57,8.57,0,0,1,1-.28l.55-.11h.11c.4,0,.79,0,1.2,0a3,3,0,0,1,1.23.46,1.7,1.7,0,0,1,.39.68,6,6,0,0,1,.17,2.16c-.13,3,4.57,3,4.7,0C236.45,152,235,148.5,231.26,147.69Z"/><path class="cls-13" d="M238.68,333.23H217.23l-23.07-.07L171.1,333l-11.54-.12-9.63-.17c-4.36,14.69-14.19,20.07-19.59,22,.18,3,1,7.54,3.19,9,1.12.74,2.89.58,5.26-.46l4.76-2.1,11.07,70.79-1.4,1.43c-.12.13-3.44,3.75-2,8.46L152,444l-1.65,1.7c-5.72,5.92-13,16.56-11.19,21.7,1,2.81,5.23,3.95,8.63,4.41,6.35.87,14.73.87,18.54-4,3.35-4.27,3.18-12.28-.44-21.4l-.42-1.06.2-1.12c0-.13.62-4.91-4-11.53l-1-1.47L173.81,375c-1-.56-2-1.16-2.91-1.82a29.29,29.29,0,0,1-3.21-2.56,20.56,20.56,0,0,1-2.78-3c5.24,1.52,10.11,2.83,15,3.87a68.28,68.28,0,0,0,14.57,1.63A62.52,62.52,0,0,0,209,371.59c1.19-.32,2.42-.55,3.61-.91l1.84-.46c.6-.19,1.21-.36,1.83-.53,1.25-.3,2.46-.73,3.75-1.05s2.54-.76,3.93-1a28.54,28.54,0,0,1-8.6,7.43l13.26,56.17-1,1.47c-4.65,6.62-4.05,11.4-4,11.6l.2,1.12-.43,1c-3.62,9.12-3.79,17.13-.45,21.4,3.82,4.87,12.19,4.87,18.54,4,3.41-.46,7.67-1.6,8.64-4.41,1.95-5.65-6.7-17.06-11.19-21.7l-1.66-1.7.71-2.27c1.48-4.74-1.94-8.42-2-8.45l-1.4-1.44L245.58,361l4.77,2.1c2.37,1,4.14,1.2,5.25.46,2.1-1.39,3-5.76,3.18-8.74C253.64,353.21,243.32,348.13,238.68,333.23Z"/><path class="cls-13" d="M257.3,283.56a107.58,107.58,0,0,1-1.09,12.66,96,96,0,0,1-2.81,12.41,97.89,97.89,0,0,1-10.12,22.53c3.86,13.09,12.59,17.48,16.82,18.88,22.24-31.68,30.75-61.67,25.28-89.14,0-.15-.07-.3-.1-.45a99.62,99.62,0,0,0-29,6.09A109.9,109.9,0,0,1,257.3,283.56Z"/><path class="cls-13" d="M276.7,75.65l17.72,5.6-7.62,6.41.72.81.2.23c2.59,3.36,5.58,7.49,8.67,12.26C314.48,77,325.11,45.7,323.82,29.77,294.14,45.19,281.62,64.84,276.7,75.65Z"/><path class="cls-13" d="M145.32,330.57a85.57,85.57,0,0,1-10.64-21.87,89.45,89.45,0,0,1-3-12.42,95,95,0,0,1-1.18-12.7,98.5,98.5,0,0,1,1.13-17.18,101.33,101.33,0,0,0-27.81-5.89c0,.16-.07.33-.1.49-5.42,27.39,3.05,57.28,25.16,88.85C133.37,348.23,141.71,343.54,145.32,330.57Z"/><polygon class="cls-13" points="205.5 64.32 205.5 64.32 205.5 64.32 205.5 64.32"/><path class="cls-13" d="M275.48,86.88l2.89-2.43-12.1-3.82,1.45-3.89c10.69-28.7,37-46.08,53.68-54.6a3.86,3.86,0,0,0-2-1.31c-2.8-.76-12.83-.28-45.41,20.63C255.56,53.27,239,65.84,238.87,66l-.56.43h0l-5,3.79-.41.37a61.39,61.39,0,0,0-4.68,5.19l-.21.32s0,.06-.05.09a71.51,71.51,0,0,0-10-7.28,34.23,34.23,0,0,0-10-4.22,16.81,16.81,0,0,0-2.5-.33l-.18,0-.58,0h0C194,63.4,186.44,55.39,182,48.8a29.52,29.52,0,0,0,1.75,7.51l3.77,9.54-8.85-5.17C166.44,53.57,160.9,44,158.4,37.38c-3.59,8.16-2.86,20.25-2.06,25.19l1.41,8.78L150.69,66c-.17-.12-16.69-12.69-35.09-24.5C83,20.55,73,20.07,70.19,20.83a3.9,3.9,0,0,0-2,1.31c16.73,8.52,43,25.9,53.68,54.6l1.45,3.89-12.1,3.82,2.89,2.43L108,93.63c-19.32,25.09-26.47,47.26-28.91,62.58l18.47-22.87-3.14,15.72c-.59,2.92-1.64,8.76-2.37,14.44a84.42,84.42,0,0,1,7.72-11.57c9.92-12.44,22-19.54,35.33-20.82-2.85-1.86-6.18-4-8.11-5.18l-7.87-4.72,9.11,1.08c1.12.13,27.59,3.4,48.28,19.31l.94.7a6,6,0,0,1,1.75-2.91l10.1-9.5a8.29,8.29,0,0,1,11,0l10.1,9.5a5.92,5.92,0,0,1,1.75,2.92l.94-.7h0c20.69-15.91,47.16-19.18,48.28-19.31l9.11-1.08-7.87,4.72c-1.93,1.17-5.26,3.32-8.11,5.18,13.3,1.28,25.41,8.38,35.33,20.82a84.42,84.42,0,0,1,7.72,11.57c-.73-5.68-1.78-11.52-2.36-14.44L292,133.34l18.47,22.87c-2.44-15.32-9.59-37.49-28.9-62.58Z"/><path class="cls-13" d="M101.84,88.7l.2-.23.72-.81-7.62-6.41,17.72-5.6c-4.92-10.81-17.44-30.46-47.12-45.88C64.45,45.7,75.08,77,93.17,101,96.26,96.19,99.25,92.06,101.84,88.7Z"/><path d="M243.94,191.72c-.07.15-.15.28-.22.43l.63-.23A2,2,0,0,0,243.94,191.72Z"/><path d="M145.19,191.72l-.24.1.37.14Z"/><path d="M145.57,192.05l-.25-.09a2,2,0,0,0,.11.2Z"/><path d="M319.51,168.72c-.4-23.53-9.62-45.15-19.14-61.31,21.19-26.9,35.07-66.22,29.4-84.32-1.92-6.12-5.7-8.33-8.54-9.1-3.06-.84-12.36-3.38-51.14,21.52C260.48,41.68,251.4,48,244.81,52.78h0l-.48.35-.22.21L228.52,65.79a40.9,40.9,0,0,0-4.44-3.71A23.93,23.93,0,0,0,217,58.45,9.18,9.18,0,0,0,214.7,58h0a76.79,76.79,0,0,0-7.94-.78h-.09l-.61,0v0h-.23c-14.07-.67-22-19.68-22.11-19.87l-2.53-6.2-3.71,5.57c-2.17,3.25-3,7.44-2.59,12.49C164.7,40,163.52,29.43,163.47,28.91l-.63-6.84-5.22,4.47c-8.16,7-9.24,20.4-9,29.06-6.57-4.8-17.5-12.59-29.17-20.09C80.69,10.61,71.39,13.15,68.33,14c-2.84.77-6.62,3-8.54,9.1-5.67,18.1,8.21,57.42,29.4,84.32-9.51,16.16-18.74,37.78-19.14,61.31l-.19,11.47,14.37-17.8c-.66,5.12-1.1,10.41-.76,13.89l.74,7.39,5.71-4.75c1.24-1,3.66-3,6.29-4.87l-3.29,13.14,13.92-9.28L137.1,189c-1.29,2.48-1.77,5.71-1.41,9.68-7.62,5.45-32.83,25.78-39.78,60.7C90,289,98.9,321,122.32,354.41c.13,3.46,1,12,6.77,15.84a11.28,11.28,0,0,0,8.07,1.66l9,57.45a17,17,0,0,0-3.08,12.39c-4.27,4.77-15,18.16-11.51,28.26,1.85,5.34,6.93,8.61,15.11,9.72a52.87,52.87,0,0,0,7.18.52c8.54,0,14.83-2.52,18.74-7.52,5.06-6.47,5.43-16.77,1-28.38.13-2.43-.2-8-4.47-14.73l12.12-51.36a45.54,45.54,0,0,0,13.14,2.17,42.58,42.58,0,0,0,13.46-2.12L220,429.62c-4.27,6.77-4.59,12.29-4.47,14.73-4.39,11.61-4,21.91,1,28.38,4.94,6.31,13.67,8.66,25.92,7,8.19-1.11,13.27-4.38,15.12-9.72,3.49-10.1-7.25-23.49-11.51-28.26A17.07,17.07,0,0,0,243,429.36l9-57.45a11.3,11.3,0,0,0,8.07-1.66c5.72-3.82,6.64-12.37,6.77-15.84,23.42-33.46,32.3-65.44,26.41-95.07-7-34.92-32.17-55.25-39.79-60.7a17.57,17.57,0,0,0-1.34-9.55l30.62-11.18,13.92,9.28-3.29-13.14c2.63,1.9,5.06,3.84,6.29,4.87l5.71,4.75.74-7.39c.35-3.48-.1-8.77-.76-13.89l14.37,17.8ZM296.39,101c-3.09-4.77-6.08-8.9-8.67-12.26l-.2-.23-.72-.81,7.62-6.41-17.72-5.6c4.92-10.81,17.44-30.46,47.12-45.88C325.11,45.7,314.48,77,296.39,101ZM65.74,29.77c29.68,15.42,42.2,35.07,47.12,45.88l-17.72,5.6,7.62,6.41-.72.81-.2.23c-2.59,3.36-5.58,7.49-8.67,12.26C75.08,77,64.45,45.7,65.74,29.77ZM128.9,349.85c-22.11-31.57-30.58-61.46-25.16-88.85,0-.16.07-.33.1-.49a101.33,101.33,0,0,1,27.81,5.89,98.5,98.5,0,0,0-1.13,17.18,95,95,0,0,0,1.18,12.7,89.45,89.45,0,0,0,3,12.42,85.57,85.57,0,0,0,10.64,21.87C141.71,343.54,133.37,348.23,128.9,349.85ZM255.6,363.6c-1.11.74-2.88.58-5.25-.46l-4.77-2.1-11.06,70.79,1.4,1.44s3.45,3.71,2,8.45l-.71,2.27,1.66,1.7c4.49,4.64,13.14,16.05,11.19,21.7-1,2.81-5.23,3.95-8.64,4.41-6.35.87-14.72.87-18.54-4-3.34-4.27-3.17-12.28.45-21.4l.43-1-.2-1.12c0-.2-.63-5,4-11.6l1-1.47-13.26-56.17a28.54,28.54,0,0,0,8.6-7.43c-1.39.26-2.64.69-3.93,1s-2.5.75-3.75,1.05c-.62.17-1.23.34-1.83.53l-1.84.46c-1.19.36-2.42.59-3.61.91a62.52,62.52,0,0,1-14.49,1.53,68.28,68.28,0,0,1-14.57-1.63c-4.88-1-9.75-2.35-15-3.87a20.56,20.56,0,0,0,2.78,3,29.29,29.29,0,0,0,3.21,2.56c.94.66,1.92,1.26,2.91,1.82l-13.25,56.18,1,1.47c4.65,6.62,4,11.4,4,11.53l-.2,1.12.42,1.06c3.62,9.12,3.79,17.13.44,21.4-3.81,4.87-12.19,4.87-18.54,4-3.4-.46-7.66-1.6-8.63-4.41-1.78-5.14,5.47-15.78,11.19-21.7L152,444l-.7-2.27c-1.47-4.71,1.85-8.33,2-8.46l1.4-1.43L143.55,361l-4.76,2.1c-2.37,1-4.14,1.2-5.26.46-2.16-1.43-3-6-3.19-9,5.4-1.89,15.23-7.27,19.59-22l9.63.17,11.54.12,23.06.21,23.07.07h21.45c4.64,14.9,15,20,20.1,21.63C258.57,357.84,257.7,362.21,255.6,363.6Zm29.78-102.7c5.47,27.47-3,57.46-25.28,89.14-4.23-1.4-13-5.79-16.82-18.88a97.89,97.89,0,0,0,10.12-22.53,96,96,0,0,0,2.81-12.41,107.58,107.58,0,0,0,1.09-12.66,109.9,109.9,0,0,0-1.05-17,99.62,99.62,0,0,1,29-6.09C285.31,260.6,285.35,260.75,285.38,260.9Zm-40.82-68.83c.82.79,1.42,3.26.65,7.84l-.13.77a58.26,58.26,0,0,1-43.25,26.93c-1.91.19-1.93,3.19,0,3a61.44,61.44,0,0,0,44.86-26.87l.34.21c.29.19,28,18,37.07,51.56a105.86,105.86,0,0,0-28.67,6c-.2-1-.42-2.08-.65-3.11a71.57,71.57,0,0,0-3.91-12,49.79,49.79,0,0,0-6.24-10.91c2.1,8.09,3.91,15.94,5.36,23.87a106.6,106.6,0,0,1,1.85,24,105.3,105.3,0,0,1-1.28,11.9,100.77,100.77,0,0,1-2.8,11.62,91.84,91.84,0,0,1-9.2,20.14l-21.33,0-23.07.07-23.06.21-11.54.12-10.06.18a107.39,107.39,0,0,1-8.69-20.78c-.53-1.91-1.06-3.82-1.47-5.77s-.79-3.89-1.16-5.83c-.58-3.93-1-7.88-1.18-11.86a110.6,110.6,0,0,1,1.73-23.86c1.45-7.91,3.21-15.7,5-23.95a44.07,44.07,0,0,0-6.56,10.8,65,65,0,0,0-4,12c-.23,1-.44,2-.64,3A106.42,106.42,0,0,0,105,255.58c9-33.52,36.8-51.45,37.09-51.63l1.45-.91a61.43,61.43,0,0,0,45.32,27.57c1.92.19,1.91-2.81,0-3a58.27,58.27,0,0,1-45.26-30.35c-.18-2.9.32-4.57,1-5.19a1.85,1.85,0,0,1,.37-.25l.24-.1.13.24.25.09-.14.11.39.74c11.85,22.27,30.69,27.5,41.18,28.59l12.61.2h.14c9.05-.5,31-4.44,44-29.53.07-.15.15-.28.22-.43a2,2,0,0,1,.41.2C244.42,192,244.49,192,244.56,192.07ZM288.74,162l-7.31-3.13L284,169.32l-.27-.19-39.72,14.5-1.49.55-4.68,1.71-.08.18a59.09,59.09,0,0,1-3.73,6.83c-10.63,16.73-25.84,20.27-34.63,20.79l-11.79-.17c-8.79-1-24.3-5.36-34.4-23.69-.66-1.19-1.3-2.45-1.91-3.76l-.17-.37-.57-.21-5.15-1.88-1.56-.57-38.1-13.91-.27.19,2.61-10.44L100.82,162A35.69,35.69,0,0,0,96,164.69c7-12.29,21.62-30.81,45.37-29.8l7,.3-5.86-3.91c-.18-.12-2.19-1.46-4.7-3.11,9.51,2.34,24.12,7.18,36.31,16.56,0,0,6.9,6.14,12.34,9.93l2.85,2.68a8.29,8.29,0,0,0,11,0l2.83-2.66c5.44-3.78,12.37-10,12.37-10h0c12.19-9.37,26.79-14.21,36.3-16.55-2.51,1.65-4.52,3-4.7,3.11l-5.86,3.91,7-.3c23.75-1,38.34,17.51,45.37,29.8A35.69,35.69,0,0,0,288.74,162ZM292,133.34l3.15,15.72c.58,2.92,1.63,8.76,2.36,14.44a84.42,84.42,0,0,0-7.72-11.57c-9.92-12.44-22-19.54-35.33-20.82,2.85-1.86,6.18-4,8.11-5.18l7.87-4.72-9.11,1.08c-1.12.13-27.59,3.4-48.28,19.31h0l-.94.7a5.92,5.92,0,0,0-1.75-2.92l-10.1-9.5a8.29,8.29,0,0,0-11,0l-10.1,9.5a6,6,0,0,0-1.75,2.91l-.94-.7c-20.69-15.91-47.16-19.18-48.28-19.31l-9.11-1.08,7.87,4.72c1.93,1.17,5.26,3.32,8.11,5.18-13.3,1.28-25.41,8.38-35.33,20.82a84.42,84.42,0,0,0-7.72,11.57c.73-5.68,1.78-11.52,2.37-14.44l3.14-15.72L79.09,156.21c2.44-15.32,9.59-37.49,28.91-62.58l6.08-6.75-2.89-2.43,12.1-3.82-1.45-3.89C111.15,48,84.89,30.66,68.16,22.14a3.9,3.9,0,0,1,2-1.31C73,20.07,83,20.55,115.6,41.46,134,53.27,150.52,65.84,150.69,66l7.06,5.39-1.41-8.78c-.8-4.94-1.53-17,2.06-25.19,2.5,6.64,8,16.19,20.25,23.3l8.85,5.17-3.77-9.54A29.52,29.52,0,0,1,182,48.8c4.46,6.59,12,14.6,22.75,15.46h0l.58,0,.18,0h0a16.81,16.81,0,0,1,2.5.33,34.23,34.23,0,0,1,10,4.22,71.51,71.51,0,0,1,10,7.28s0-.06.05-.09l.21-.32a61.39,61.39,0,0,1,4.68-5.19l.41-.37,5-3.79h0l.56-.43c.17-.12,16.69-12.69,35.09-24.5,32.58-20.91,42.61-21.39,45.41-20.63a3.86,3.86,0,0,1,2,1.31c-16.72,8.52-43,25.9-53.68,54.6l-1.45,3.89,12.1,3.82-2.89,2.43,6.09,6.75c19.31,25.09,26.46,47.26,28.9,62.58Z"/><path d="M143.79,404.06c-.36,8.16-4,15.21-8.3,22A53.54,53.54,0,0,0,134.06,413a2.63,2.63,0,0,0-1.6-1.93c-1.59-1.08-4-.83-4.44,1.55-2.79,15.95-15.93,32.67-31.88,37.06-16.52,4.55-34.15-2.79-44.2-16.24-11.66-15.62-13.32-35.42-7.57-53A33.06,33.06,0,0,0,64.5,397c14.65,4.38,30.09-1.6,40.45-12.21,6.11-6.26,13.32-17.64,22.11-23.54a8.66,8.66,0,0,1-.35-6.27.14.14,0,0,0,0-.06,41,41,0,0,0-10.65,7.78C105.48,373.3,98.52,387.2,83,391.34c-14.54,3.86-31.27-3.28-35.21-18.59l-.12-.53a27.48,27.48,0,0,1-.25-11.61,73.66,73.66,0,0,0-6,10.76,67,67,0,0,0-3.54,46.94c8.21,27.18,37.56,47.5,65.63,35,11-4.86,20.51-14.83,26-26.12a47,47,0,0,1-2.18,12.06c-1,3.26,3.8,5.24,5.49,2.31,6.93-12.08,16.38-23,17-37.54C150,400.2,144,400.21,143.79,404.06Z"/><path d="M168.38,448.84a3.9,3.9,0,0,1-.57-2.78c-7.14-2.6-16-2.52-23.19-.56a25.08,25.08,0,0,1-1.36,3.52c7.57-2.63,18.21-2.83,25.69.79C168.77,449.48,168.59,449.15,168.38,448.84Z"/><path d="M220.5,448.84a3.86,3.86,0,0,0,.57-2.78c7.14-2.6,16-2.52,23.19-.56a25.08,25.08,0,0,0,1.36,3.52c-7.57-2.63-18.21-2.83-25.69.79C220.11,449.48,220.29,449.15,220.5,448.84Z"/></g><g id="LOGOTYPE"><path class="cls-14" d="M195,261.13c6.34,0,10.21,3.13,12.76,7.22a1.45,1.45,0,0,0,1.9.95l10.21-2.78c1.38-.36,1-1.38.8-1.89-2.67-7-8.76-12-16.29-14.3v-11.1h-9.24V249h-.21a29.09,29.09,0,0,0-3.12.16v-9.88h-9.24V251.6a26.64,26.64,0,0,0,0,48.4v13.07h9.24V302.15c.43,0,.86,0,1.29,0,.7,0,1.38,0,2-.07v10.95h9.24V299.61a17.11,17.11,0,0,0,4.18-3.26v2.92a1.72,1.72,0,0,0,1.83,1.82h8.38a1.72,1.72,0,0,0,1.83-1.82v-23.7a1.73,1.73,0,0,0-1.83-1.83h-22.9a1.72,1.72,0,0,0-1.82,1.83v6.85a1.72,1.72,0,0,0,1.82,1.83h11.89a15,15,0,0,1-12.4,6c-8.46,0-14.58-6.06-14.58-14.44A14.38,14.38,0,0,1,195,261.13Z"/></g></g></g></svg>